<svg width="1920" height="1080" viewBox="0 0 1920 1080" xmlns="http://www.w3.org/2000/svg">
  <defs>
    <!-- Gradients -->
    <linearGradient id="bgGradient" x1="0%" y1="0%" x2="100%" y2="100%">
      <stop offset="0%" style="stop-color:#0f0f0f"/>
      <stop offset="50%" style="stop-color:#1a1a1a"/>
      <stop offset="100%" style="stop-color:#0f0f0f"/>
    </linearGradient>
    
    <linearGradient id="neonBlue" x1="0%" y1="0%" x2="100%" y2="0%">
      <stop offset="0%" style="stop-color:#3b82f6;stop-opacity:0"/>
      <stop offset="50%" style="stop-color:#3b82f6;stop-opacity:1"/>
      <stop offset="100%" style="stop-color:#3b82f6;stop-opacity:0"/>
    </linearGradient>
    
    <linearGradient id="neonPurple" x1="0%" y1="0%" x2="100%" y2="0%">
      <stop offset="0%" style="stop-color:#8b5cf6;stop-opacity:0"/>
      <stop offset="50%" style="stop-color:#8b5cf6;stop-opacity:1"/>
      <stop offset="100%" style="stop-color:#8b5cf6;stop-opacity:0"/>
    </linearGradient>
    
    <radialGradient id="serverGlow" cx="50%" cy="50%" r="50%">
      <stop offset="0%" style="stop-color:#8b5cf6;stop-opacity:0.3"/>
      <stop offset="100%" style="stop-color:#8b5cf6;stop-opacity:0"/>
    </radialGradient>
    
    <!-- Filters -->
    <filter id="glow">
      <feGaussianBlur stdDeviation="3" result="coloredBlur"/>
      <feMerge> 
        <feMergeNode in="coloredBlur"/>
        <feMergeNode in="SourceGraphic"/>
      </feMerge>
    </filter>
    
    <!-- Patterns -->
    <pattern id="circuitPattern" x="0" y="0" width="40" height="40" patternUnits="userSpaceOnUse">
      <rect width="40" height="40" fill="none"/>
      <path d="M0 20h40M20 0v40" stroke="#8b5cf6" stroke-width="0.5" opacity="0.3"/>
      <circle cx="20" cy="20" r="2" fill="#8b5cf6" opacity="0.5"/>
    </pattern>
    
    <pattern id="hexPattern" x="0" y="0" width="60" height="52" patternUnits="userSpaceOnUse">
      <polygon points="30,1 56,15 56,41 30,55 4,41 4,15" fill="none" stroke="#3b82f6" stroke-width="0.5" opacity="0.2"/>
    </pattern>
  </defs>
  
  <!-- Background -->
  <rect width="1920" height="1080" fill="url(#bgGradient)"/>
  
  <!-- Circuit Pattern Overlay -->
  <rect width="1920" height="1080" fill="url(#circuitPattern)" opacity="0.15"/>
  
  <!-- Hexagon Pattern -->
  <rect width="1920" height="1080" fill="url(#hexPattern)" opacity="0.1"/>
  
  <!-- Data Center Servers (Left Side) -->
  <g transform="translate(100, 150)">
    <!-- Server Rack 1 -->
    <rect x="0" y="0" width="80" height="400" fill="#1a1a1a" stroke="#8b5cf6" stroke-width="1" opacity="0.8"/>
    <rect x="10" y="20" width="60" height="15" fill="#262626" stroke="#3b82f6" stroke-width="0.5"/>
    <rect x="10" y="45" width="60" height="15" fill="#262626" stroke="#3b82f6" stroke-width="0.5"/>
    <rect x="10" y="70" width="60" height="15" fill="#262626" stroke="#3b82f6" stroke-width="0.5"/>
    <rect x="10" y="95" width="60" height="15" fill="#262626" stroke="#3b82f6" stroke-width="0.5"/>
    
    <!-- Server LEDs -->
    <circle cx="65" cy="27" r="2" fill="#10b981" filter="url(#glow)"/>
    <circle cx="65" cy="52" r="2" fill="#10b981" filter="url(#glow)"/>
    <circle cx="65" cy="77" r="2" fill="#f59e0b" filter="url(#glow)"/>
    <circle cx="65" cy="102" r="2" fill="#10b981" filter="url(#glow)"/>
    
    <!-- Server Rack 2 -->
    <rect x="100" y="50" width="80" height="350" fill="#1a1a1a" stroke="#8b5cf6" stroke-width="1" opacity="0.8"/>
    <rect x="110" y="70" width="60" height="15" fill="#262626" stroke="#3b82f6" stroke-width="0.5"/>
    <rect x="110" y="95" width="60" height="15" fill="#262626" stroke="#3b82f6" stroke-width="0.5"/>
    <rect x="110" y="120" width="60" height="15" fill="#262626" stroke="#3b82f6" stroke-width="0.5"/>
    
    <!-- Server LEDs -->
    <circle cx="165" cy="77" r="2" fill="#10b981" filter="url(#glow)"/>
    <circle cx="165" cy="102" r="2" fill="#ef4444" filter="url(#glow)"/>
    <circle cx="165" cy="127" r="2" fill="#10b981" filter="url(#glow)"/>
  </g>
  
  <!-- Network Cables and Connections -->
  <g>
    <!-- Horizontal Cable Runs -->
    <path d="M200 300 Q600 280 1000 320 Q1400 360 1700 340" stroke="url(#neonBlue)" stroke-width="2" fill="none" opacity="0.6"/>
    <path d="M200 350 Q650 330 1100 370 Q1450 410 1750 390" stroke="url(#neonPurple)" stroke-width="2" fill="none" opacity="0.6"/>
    <path d="M200 400 Q550 380 950 420 Q1350 460 1650 440" stroke="url(#neonBlue)" stroke-width="2" fill="none" opacity="0.4"/>
    
    <!-- Vertical Cable Runs -->
    <path d="M400 100 Q420 300 440 500 Q460 700 480 900" stroke="url(#neonPurple)" stroke-width="2" fill="none" opacity="0.5"/>
    <path d="M800 150 Q820 350 840 550 Q860 750 880 950" stroke="url(#neonBlue)" stroke-width="2" fill="none" opacity="0.5"/>
    <path d="M1200 100 Q1220 300 1240 500 Q1260 700 1280 900" stroke="url(#neonPurple)" stroke-width="2" fill="none" opacity="0.4"/>
  </g>
  
  <!-- Data Center Cooling Units (Right Side) -->
  <g transform="translate(1500, 200)">
    <!-- Cooling Unit 1 -->
    <rect x="0" y="0" width="120" height="200" fill="#1a1a1a" stroke="#3b82f6" stroke-width="1" opacity="0.7"/>
    <rect x="10" y="20" width="100" height="30" fill="#262626" stroke="#8b5cf6" stroke-width="0.5"/>
    <rect x="10" y="60" width="100" height="30" fill="#262626" stroke="#8b5cf6" stroke-width="0.5"/>
    
    <!-- Fan Indicators -->
    <circle cx="35" cy="35" r="8" fill="none" stroke="#10b981" stroke-width="1" opacity="0.8"/>
    <circle cx="85" cy="35" r="8" fill="none" stroke="#10b981" stroke-width="1" opacity="0.8"/>
    <circle cx="35" cy="75" r="8" fill="none" stroke="#f59e0b" stroke-width="1" opacity="0.8"/>
    <circle cx="85" cy="75" r="8" fill="none" stroke="#10b981" stroke-width="1" opacity="0.8"/>
    
    <!-- Temperature Display -->
    <rect x="20" y="120" width="80" height="40" fill="#0f0f0f" stroke="#8b5cf6" stroke-width="1"/>
    <text x="60" y="135" text-anchor="middle" fill="#8b5cf6" font-family="monospace" font-size="8">TEMP</text>
    <text x="60" y="150" text-anchor="middle" fill="#10b981" font-family="monospace" font-size="12">22°C</text>
  </g>
  
  <!-- Network Switch (Center) -->
  <g transform="translate(800, 600)">
    <rect x="0" y="0" width="300" height="100" fill="#1a1a1a" stroke="#8b5cf6" stroke-width="1" opacity="0.8"/>
    
    <!-- Port Array -->
    <g transform="translate(20, 20)">
      <rect x="0" y="0" width="260" height="60" fill="#262626" stroke="#3b82f6" stroke-width="0.5"/>
      
      <!-- Network Ports -->
      <g fill="#374151" stroke="#8b5cf6" stroke-width="0.5">
        <rect x="10" y="10" width="12" height="8"/>
        <rect x="30" y="10" width="12" height="8"/>
        <rect x="50" y="10" width="12" height="8"/>
        <rect x="70" y="10" width="12" height="8"/>
        <rect x="90" y="10" width="12" height="8"/>
        <rect x="110" y="10" width="12" height="8"/>
        <rect x="130" y="10" width="12" height="8"/>
        <rect x="150" y="10" width="12" height="8"/>
        
        <rect x="10" y="30" width="12" height="8"/>
        <rect x="30" y="30" width="12" height="8"/>
        <rect x="50" y="30" width="12" height="8"/>
        <rect x="70" y="30" width="12" height="8"/>
        <rect x="90" y="30" width="12" height="8"/>
        <rect x="110" y="30" width="12" height="8"/>
        <rect x="130" y="30" width="12" height="8"/>
        <rect x="150" y="30" width="12" height="8"/>
      </g>
      
      <!-- Activity LEDs -->
      <circle cx="16" cy="25" r="1" fill="#10b981" filter="url(#glow)"/>
      <circle cx="36" cy="25" r="1" fill="#10b981" filter="url(#glow)"/>
      <circle cx="56" cy="25" r="1" fill="#f59e0b" filter="url(#glow)"/>
      <circle cx="76" cy="25" r="1" fill="#10b981" filter="url(#glow)"/>
      <circle cx="96" cy="25" r="1" fill="#ef4444" filter="url(#glow)"/>
      <circle cx="116" cy="25" r="1" fill="#10b981" filter="url(#glow)"/>
    </g>
    
    <!-- Status Display -->
    <rect x="200" y="25" width="80" height="30" fill="#0f0f0f" stroke="#8b5cf6" stroke-width="1"/>
    <text x="240" y="37" text-anchor="middle" fill="#8b5cf6" font-family="monospace" font-size="6">STATUS</text>
    <text x="240" y="47" text-anchor="middle" fill="#10b981" font-family="monospace" font-size="8">ONLINE</text>
  </g>
  
  <!-- Floating Data Particles -->
  <g opacity="0.6">
    <circle cx="300" cy="200" r="3" fill="#8b5cf6" filter="url(#glow)">
      <animateTransform attributeName="transform" type="translate" values="0 0; 50 -20; 100 0" dur="4s" repeatCount="indefinite"/>
      <animate attributeName="opacity" values="0.6; 1; 0.6" dur="4s" repeatCount="indefinite"/>
    </circle>
    
    <circle cx="600" cy="400" r="2" fill="#3b82f6" filter="url(#glow)">
      <animateTransform attributeName="transform" type="translate" values="0 0; -30 30; -60 0" dur="5s" repeatCount="indefinite"/>
      <animate attributeName="opacity" values="0.4; 0.8; 0.4" dur="5s" repeatCount="indefinite"/>
    </circle>
    
    <circle cx="1200" cy="300" r="4" fill="#a78bfa" filter="url(#glow)">
      <animateTransform attributeName="transform" type="translate" values="0 0; 40 40; 80 0" dur="6s" repeatCount="indefinite"/>
      <animate attributeName="opacity" values="0.5; 1; 0.5" dur="6s" repeatCount="indefinite"/>
    </circle>
  </g>
  
  <!-- Network Flow Lines -->
  <g opacity="0.3">
    <path d="M100 500 L1800 500" stroke="#8b5cf6" stroke-width="1" stroke-dasharray="5,5">
      <animate attributeName="stroke-dashoffset" values="0; -10" dur="2s" repeatCount="indefinite"/>
    </path>
    
    <path d="M500 100 L500 900" stroke="#3b82f6" stroke-width="1" stroke-dasharray="3,7">
      <animate attributeName="stroke-dashoffset" values="0; -10" dur="3s" repeatCount="indefinite"/>
    </path>
    
    <path d="M1000 150 L1000 850" stroke="#a78bfa" stroke-width="1" stroke-dasharray="4,6">
      <animate attributeName="stroke-dashoffset" values="0; -10" dur="2.5s" repeatCount="indefinite"/>
    </path>
  </g>
  
  <!-- Subtle Overlay Gradient -->
  <rect width="1920" height="1080" fill="url(#serverGlow)" opacity="0.2"/>
</svg>